<?xml version="1.0" standalone="no"?>
<!DOCTYPE svg PUBLIC "-//W3C//DTD SVG 20010904//EN"
 "http://www.w3.org/TR/2001/REC-SVG-20010904/DTD/svg10.dtd">
<svg version="1.0" xmlns="http://www.w3.org/2000/svg"
 width="960.000000pt" height="960.000000pt" viewBox="0 0 960.000000 960.000000"
 preserveAspectRatio="xMidYMid meet">
<metadata>
Created by potrace 1.14, written by Peter Selinger 2001-2017
</metadata>
<g transform="translate(0.000000,960.000000) scale(0.100000,-0.100000)"
fill="#000000" stroke="none">
<path d="M4742 9453 c-7 -10 -9 -11 -5 -3 6 12 4 13 -9 3 -8 -7 -17 -10 -21
-7 -10 10 -57 12 -57 2 0 -5 -4 -6 -10 -3 -5 3 -10 1 -10 -5 0 -6 -4 -8 -10
-5 -5 3 -10 2 -10 -2 0 -5 -8 -9 -17 -10 -10 -1 -36 -4 -58 -6 -22 -3 -46 -6
-53 -6 -8 -1 -10 -6 -6 -13 4 -7 -2 -5 -13 5 -16 14 -23 15 -29 6 -5 -8 -3
-10 7 -4 8 5 11 4 6 -1 -5 -5 -17 -10 -28 -10 -37 -3 -40 -4 -34 -14 3 -5 1
-10 -4 -10 -6 0 -11 4 -11 10 0 5 -7 7 -15 4 -8 -4 -12 -10 -9 -15 3 -5 -6 -5
-20 1 -19 7 -24 6 -21 -3 3 -7 -6 -17 -20 -24 -19 -8 -23 -8 -19 0 4 7 -3 2
-15 -11 -18 -18 -26 -21 -37 -11 -10 8 -14 8 -14 0 0 -6 -5 -11 -11 -11 -5 0
-7 6 -4 13 4 6 -3 1 -15 -13 -12 -14 -19 -19 -15 -12 8 16 -7 16 -23 0 -10
-10 -15 -10 -22 2 -6 9 -10 10 -10 3 0 -6 -11 -10 -24 -9 -15 2 -27 -3 -31
-12 -4 -11 -8 -12 -20 -2 -11 9 -15 9 -15 1 0 -7 -6 -11 -12 -10 -25 3 -39 -1
-33 -10 3 -6 -6 -8 -21 -5 -14 3 -23 1 -20 -5 9 -14 -20 -21 -33 -8 -8 8 -11
6 -12 -9 0 -19 -1 -19 -8 0 -7 18 -8 18 -24 -5 -11 -15 -17 -18 -17 -9 -1 12
-4 11 -14 -3 -10 -13 -16 -15 -22 -6 -5 9 -10 8 -19 -5 -7 -9 -19 -15 -26 -14
-8 2 -13 -3 -11 -10 1 -8 -1 -11 -6 -8 -5 3 -22 1 -38 -4 -16 -4 -22 -9 -14
-10 8 -1 2 -5 -15 -9 -18 -4 -29 -13 -27 -21 3 -11 1 -11 -13 0 -14 11 -16 11
-13 0 2 -8 -5 -14 -14 -15 -9 0 -24 -9 -33 -20 -9 -11 -14 -14 -10 -7 3 6 1
12 -4 12 -6 0 -11 -4 -11 -10 0 -5 -8 -10 -19 -10 -10 0 -26 -10 -35 -22 -9
-13 -14 -17 -10 -9 5 9 3 12 -4 7 -7 -4 -12 -14 -12 -22 0 -8 -4 -12 -10 -9
-5 3 -21 -5 -34 -18 -14 -14 -27 -22 -30 -19 -3 3 -6 0 -6 -7 0 -7 -4 -9 -10
-6 -9 6 -14 -8 -11 -28 1 -5 -3 -6 -9 -2 -6 4 -20 -4 -31 -17 -11 -13 -17 -17
-13 -9 5 9 3 12 -4 7 -7 -4 -12 -14 -12 -22 0 -9 -5 -12 -12 -8 -7 5 -9 2 -5
-9 4 -12 2 -14 -10 -10 -12 5 -15 2 -10 -10 4 -10 2 -14 -6 -11 -7 2 -17 -6
-23 -18 -6 -13 -8 -16 -6 -8 2 10 -3 9 -16 -5 -11 -11 -18 -23 -15 -27 2 -5
-3 -8 -11 -8 -17 0 -39 -34 -28 -44 3 -4 -1 -4 -11 0 -12 4 -17 1 -17 -11 0
-9 -4 -13 -10 -10 -9 6 -14 -8 -11 -27 0 -5 -6 -8 -15 -8 -10 0 -14 -6 -10
-15 3 -8 0 -14 -7 -12 -7 1 -11 -8 -11 -20 1 -13 -2 -20 -7 -17 -8 5 -35 -36
-31 -48 1 -5 -2 -8 -8 -8 -5 0 -10 -7 -10 -16 0 -8 -4 -13 -9 -10 -5 3 -12 -1
-15 -10 -9 -24 -7 -31 4 -14 6 9 10 10 10 3 0 -7 -7 -16 -16 -21 -9 -5 -17
-13 -17 -18 -1 -5 -4 -8 -7 -7 -3 1 -7 -8 -7 -20 -1 -12 -7 -23 -13 -25 -8 -3
-8 -8 0 -17 9 -10 6 -16 -10 -25 -11 -6 -18 -15 -15 -20 8 -14 -6 -40 -19 -33
-6 4 -5 -1 3 -10 11 -14 11 -18 -3 -23 -10 -4 -15 -13 -12 -21 4 -9 2 -11 -6
-7 -8 5 -9 -2 -4 -22 5 -21 4 -25 -4 -14 -5 8 -10 12 -11 8 -2 -11 -6 -26 -9
-35 -1 -5 -2 -11 -1 -15 0 -5 -4 -8 -10 -8 -8 0 -7 -6 2 -17 8 -9 9 -14 3 -10
-7 4 -14 0 -18 -8 -3 -8 -1 -17 4 -20 6 -4 10 -12 9 -18 0 -9 -2 -8 -6 1 -2 6
-9 10 -13 7 -5 -3 -7 -12 -4 -19 3 -8 0 -17 -6 -21 -8 -5 -8 -10 0 -20 8 -9 6
-17 -5 -29 -9 -9 -13 -21 -9 -27 4 -8 3 -9 -4 -5 -7 4 -12 2 -12 -3 0 -6 6
-11 13 -11 7 0 5 -5 -5 -11 -10 -5 -15 -16 -12 -24 4 -8 1 -15 -6 -15 -10 0
-10 -3 0 -15 10 -12 10 -15 0 -15 -9 0 -10 -3 -1 -14 9 -10 7 -16 -5 -26 -8
-8 -13 -22 -11 -32 3 -10 1 -16 -4 -12 -5 3 -9 0 -9 -5 0 -6 5 -11 11 -11 8 0
8 -4 2 -12 -6 -7 -9 -23 -8 -35 1 -13 -2 -23 -7 -23 -4 0 -8 -5 -8 -11 0 -5 6
-7 13 -4 6 4 5 0 -5 -7 -12 -10 -13 -19 -7 -31 6 -10 6 -17 1 -17 -14 0 -21
-59 -8 -64 8 -3 8 -5 0 -5 -6 -1 -9 -12 -7 -25 3 -13 -1 -27 -8 -31 -8 -6 -10
-4 -4 5 6 9 4 11 -5 5 -10 -6 -10 -10 3 -20 13 -9 14 -14 4 -25 -10 -10 -9
-11 3 -5 13 8 13 7 1 -9 -13 -15 -13 -19 0 -27 12 -7 12 -9 -1 -9 -13 0 -13
-1 0 -10 11 -7 11 -10 2 -10 -7 0 -10 -4 -7 -10 3 -5 0 -10 -7 -10 -9 0 -9 -3
2 -10 12 -8 12 -10 1 -10 -11 0 -11 -3 -1 -15 9 -10 9 -15 1 -15 -6 0 -11 -5
-11 -11 0 -5 6 -7 13 -3 6 4 4 -2 -5 -13 -20 -22 -24 -48 -7 -37 6 3 3 -5 -6
-20 -17 -25 -17 -26 0 -20 15 6 16 4 6 -14 -14 -26 -14 -35 0 -26 8 5 8 1 0
-13 -7 -14 -7 -23 1 -31 9 -9 9 -12 -1 -12 -11 0 -11 -3 0 -17 10 -11 10 -14
2 -9 -7 4 -13 2 -13 -3 0 -6 5 -11 11 -11 8 0 8 -5 -1 -15 -10 -12 -10 -15 1
-15 12 0 12 -2 0 -9 -8 -5 -9 -11 -3 -15 11 -7 11 -24 -1 -43 -5 -8 -3 -13 5
-13 10 0 10 -2 -1 -9 -8 -5 -9 -11 -3 -15 11 -7 11 -24 -1 -42 -4 -7 0 -15 9
-18 8 -3 12 -11 9 -16 -4 -6 -1 -18 7 -27 9 -12 9 -15 1 -9 -7 4 -13 2 -13 -3
0 -6 5 -11 11 -11 5 0 7 -6 3 -12 -11 -18 -12 -48 -2 -48 5 0 7 -4 3 -9 -3 -5
3 -17 12 -27 17 -17 17 -18 1 -11 -21 7 -23 -3 -5 -22 10 -11 9 -12 -3 -6 -9
5 -7 -1 5 -15 11 -13 14 -20 8 -16 -7 4 -13 2 -13 -3 0 -6 5 -11 12 -11 6 0 8
-3 5 -7 -4 -3 1 -16 10 -27 15 -18 16 -19 1 -8 -14 12 -16 10 -11 -10 3 -13
11 -29 17 -37 8 -11 8 -13 -1 -7 -9 5 -11 2 -7 -8 3 -9 10 -16 16 -16 5 0 6
-4 3 -10 -3 -5 -1 -10 5 -10 6 0 9 -4 5 -9 -3 -6 3 -14 12 -20 15 -9 16 -10 2
-11 -12 0 -15 -7 -11 -27 3 -16 10 -31 16 -35 5 -4 10 -19 11 -35 0 -17 5 -27
13 -26 6 2 12 -2 12 -7 0 -6 -6 -10 -12 -11 -7 0 -4 -4 7 -9 19 -8 19 -9 1 -9
-14 -1 -16 -4 -7 -14 6 -8 8 -17 4 -20 -3 -4 -2 -7 3 -7 5 0 9 -15 9 -34 0
-19 -4 -34 -10 -33 -5 1 -9 -4 -7 -11 1 -8 -2 -11 -8 -7 -5 3 -10 1 -10 -5 0
-6 -5 -8 -12 -4 -8 5 -9 1 -4 -12 6 -15 5 -17 -5 -6 -20 18 -25 16 -80 -38
-32 -31 -49 -56 -45 -65 3 -8 1 -17 -4 -20 -6 -4 -10 -11 -10 -16 0 -6 6 -7
13 -3 9 6 9 4 -1 -8 -10 -13 -10 -17 0 -21 9 -4 8 -6 -3 -6 -11 -1 -15 -10
-14 -31 2 -25 0 -28 -13 -17 -13 10 -14 9 -5 -8 6 -11 9 -32 7 -48 -1 -15 1
-25 5 -23 4 3 8 -21 8 -54 0 -38 -4 -57 -11 -53 -5 4 1 -9 14 -27 13 -18 19
-31 13 -27 -6 4 -13 0 -16 -8 -4 -10 -1 -12 11 -8 9 3 14 3 10 -2 -4 -4 -4
-13 1 -19 14 -20 22 -48 10 -40 -8 4 -7 0 0 -15 7 -11 16 -21 21 -21 5 0 7 -6
4 -14 -3 -7 2 -20 10 -28 11 -12 12 -18 3 -28 -7 -7 -7 -10 -1 -7 6 3 17 -9
24 -28 8 -20 18 -31 24 -28 6 4 5 0 -2 -9 -10 -13 -10 -17 4 -22 9 -3 14 -12
11 -20 -5 -13 36 -70 45 -61 2 3 5 -1 6 -7 3 -40 11 -53 28 -51 11 1 13 0 7
-3 -18 -8 -16 -27 1 -21 10 4 12 0 8 -15 -4 -16 -2 -20 10 -15 11 4 14 1 11
-11 -2 -10 10 -32 26 -49 16 -18 26 -33 21 -33 -4 0 6 -16 22 -35 17 -19 35
-32 40 -29 4 3 8 -2 8 -11 0 -9 5 -13 10 -10 9 6 15 -8 11 -29 -1 -5 5 -6 14
-2 9 3 14 2 11 -3 -6 -9 55 -67 67 -63 4 1 7 -3 7 -8 0 -6 5 -10 11 -10 5 0 7
6 3 13 -4 6 4 2 17 -10 20 -18 28 -20 39 -10 10 10 11 9 5 -2 -7 -11 -2 -13
24 -8 24 5 30 3 26 -6 -4 -6 0 -4 8 6 16 20 32 23 21 5 -6 -9 -3 -9 9 0 9 8
21 11 27 7 5 -3 10 2 10 12 0 10 4 14 8 8 12 -17 35 -17 29 -1 -4 11 -1 13 10
9 12 -5 14 -3 8 8 -5 8 2 5 14 -6 19 -16 24 -17 31 -5 8 12 10 12 15 -2 4 -10
15 -20 26 -23 10 -4 18 -12 16 -18 -1 -7 4 -11 11 -10 6 2 12 -2 12 -8 0 -15
26 -39 34 -32 6 6 10 -13 6 -32 -1 -5 1 -7 5 -4 3 4 23 -10 44 -32 21 -21 41
-35 45 -32 3 4 6 -1 6 -11 0 -9 4 -14 10 -11 6 3 7 -1 4 -9 -4 -11 0 -16 10
-16 9 0 16 -7 16 -15 0 -9 9 -19 21 -23 11 -5 21 -12 21 -17 0 -6 4 -9 9 -8 5
2 8 -3 6 -10 -1 -6 6 -11 15 -11 10 1 15 -2 12 -7 -7 -11 21 -51 29 -42 4 3 7
0 7 -8 0 -8 10 -21 21 -29 12 -8 27 -20 34 -27 7 -7 16 -9 20 -5 5 4 5 2 2 -4
-8 -14 31 -47 45 -38 7 4 8 3 4 -5 -9 -14 61 -84 75 -75 5 3 8 0 7 -7 -2 -7 6
-17 18 -23 11 -6 28 -19 38 -29 10 -9 23 -17 30 -17 8 0 19 -7 26 -15 7 -8 17
-12 23 -8 5 3 8 2 5 -3 -10 -15 24 -36 59 -37 7 0 11 -5 10 -11 -1 -6 4 -10
11 -9 6 2 12 -2 12 -8 0 -5 5 -7 10 -4 6 4 9 1 8 -6 -2 -7 6 -15 17 -17 11 -2
23 -9 26 -14 3 -5 15 -10 27 -11 20 -1 62 -67 42 -67 -5 0 -7 -9 -5 -20 2 -11
-1 -20 -7 -20 -7 0 -6 -6 2 -15 10 -12 10 -15 0 -15 -9 0 -9 -4 1 -17 8 -9 9
-14 3 -10 -13 8 -27 -19 -18 -34 3 -5 1 -9 -4 -9 -5 0 -8 -11 -7 -25 2 -16 -2
-25 -10 -25 -8 0 -17 -5 -21 -12 -4 -7 -3 -8 4 -4 7 4 3 -9 -9 -29 -24 -41
-67 -71 -55 -39 6 18 5 18 -9 0 -8 -11 -15 -16 -15 -12 0 5 -8 2 -17 -5 -9 -8
-14 -9 -10 -3 4 7 0 14 -8 17 -10 4 -12 1 -8 -11 6 -15 5 -16 -12 -2 -13 11
-19 12 -22 3 -2 -7 -11 -9 -20 -6 -10 4 -14 2 -10 -4 3 -5 0 -10 -8 -10 -8 0
-12 3 -10 7 2 3 -5 6 -15 6 -10 0 -16 -5 -13 -10 4 -5 -1 -7 -10 -3 -10 3 -17
2 -17 -4 0 -6 -4 -7 -10 -4 -5 3 -10 2 -10 -4 0 -6 -7 -8 -15 -4 -9 3 -15 2
-14 -3 4 -21 -2 -28 -11 -14 -9 13 -10 13 -10 0 0 -13 -1 -13 -10 0 -8 13 -10
12 -10 -3 0 -10 -5 -15 -10 -12 -6 4 -28 -6 -48 -21 -21 -16 -31 -20 -22 -9
14 17 14 18 -8 6 -13 -7 -20 -17 -15 -24 5 -8 2 -8 -9 1 -13 10 -17 10 -22 -3
-3 -9 -11 -13 -17 -10 -6 4 -13 -2 -16 -14 -3 -11 -9 -18 -14 -15 -5 3 -9 0
-9 -6 0 -6 -4 -8 -10 -5 -5 3 -11 1 -11 -4 -1 -6 -2 -17 -3 -23 0 -7 -5 -13
-11 -13 -5 0 -14 -3 -20 -6 -5 -4 -21 -5 -33 -4 -13 1 -26 -4 -28 -10 -3 -7
-16 -10 -30 -7 -18 3 -24 0 -24 -13 0 -15 -1 -15 -16 -1 -20 21 -25 20 -17 -1
3 -10 3 -15 -2 -11 -4 4 -15 2 -23 -5 -13 -10 -14 -9 -7 3 7 12 6 13 -6 4 -8
-6 -22 -10 -32 -9 -9 2 -15 -1 -12 -5 3 -5 -10 -8 -29 -6 -29 2 -33 0 -24 -11
8 -10 7 -12 -5 -8 -8 4 -18 1 -22 -5 -5 -8 -11 -8 -21 1 -10 8 -14 8 -14 0 0
-6 -5 -11 -11 -11 -5 0 -7 5 -3 12 5 8 2 9 -10 5 -10 -4 -20 -7 -22 -7 -3 0
-2 -5 2 -11 4 -7 -1 -7 -16 1 -15 8 -20 8 -16 1 6 -9 -6 -13 -30 -10 -4 0 -11
-5 -15 -13 -7 -11 -11 -10 -19 2 -8 12 -10 12 -10 1 0 -8 -7 -11 -20 -8 -11 3
-20 1 -20 -5 0 -5 -4 -6 -10 -3 -5 3 -10 1 -10 -5 0 -6 -5 -8 -11 -5 -6 4 -17
-1 -25 -11 -9 -11 -13 -13 -9 -6 3 6 1 12 -4 12 -6 0 -11 -4 -11 -8 0 -4 -10
-8 -22 -9 -12 -1 -27 -9 -35 -17 -7 -9 -8 -11 -1 -6 7 6 16 10 22 10 5 0 1 -6
-9 -14 -11 -8 -27 -12 -37 -11 -10 2 -18 -1 -18 -6 0 -6 -5 -7 -11 -3 -6 3
-15 0 -20 -7 -4 -8 -13 -14 -19 -14 -5 0 -10 -4 -9 -10 0 -5 -10 -13 -23 -16
-13 -3 -22 -12 -22 -22 1 -9 -2 -15 -6 -12 -14 9 -63 -43 -54 -56 4 -8 3 -9
-4 -5 -7 4 -12 2 -12 -3 0 -6 -6 -10 -12 -8 -7 1 -12 -4 -11 -10 2 -7 -2 -13
-9 -13 -13 0 -78 -68 -78 -82 0 -5 -4 -6 -10 -3 -5 3 -10 -1 -10 -9 0 -9 -6
-15 -12 -13 -7 1 -12 -2 -11 -8 1 -10 -26 -40 -37 -40 -3 0 -4 -3 -3 -7 2 -4
-6 -10 -17 -13 -11 -4 -20 -12 -20 -20 0 -7 -5 -15 -11 -17 -5 -2 -11 -11 -13
-20 -1 -10 -6 -21 -11 -25 -4 -4 -5 -2 -1 5 4 6 4 12 1 12 -10 0 -38 -30 -28
-30 4 0 0 -5 -10 -11 -9 -6 -15 -14 -12 -20 4 -5 1 -9 -5 -9 -6 0 -9 -4 -6 -9
3 -5 -2 -8 -12 -7 -11 1 -16 -5 -14 -18 2 -10 -1 -15 -6 -12 -8 5 -18 -9 -25
-34 0 -3 -15 -18 -32 -35 -17 -16 -34 -38 -38 -48 -3 -9 -11 -17 -17 -17 -6 0
-9 -4 -6 -9 3 -5 -1 -11 -9 -15 -8 -3 -15 -13 -15 -21 0 -10 -5 -13 -12 -9 -6
4 -8 3 -4 -4 3 -6 -2 -15 -11 -21 -10 -6 -14 -11 -8 -11 5 0 -1 -7 -14 -16
-18 -13 -20 -18 -10 -25 11 -7 11 -9 1 -9 -7 0 -10 -5 -7 -10 4 -6 1 -9 -7 -8
-7 2 -12 -2 -11 -9 2 -7 -3 -10 -11 -7 -8 3 -16 -4 -19 -16 -3 -12 -10 -19
-16 -15 -6 3 -9 0 -5 -8 3 -8 0 -18 -6 -22 -9 -6 -9 -10 1 -17 11 -8 10 -9 -3
-4 -19 6 -43 -25 -30 -39 4 -5 1 -5 -5 -1 -7 4 -13 2 -13 -4 0 -6 -4 -8 -10
-5 -5 3 -7 0 -4 -8 3 -8 0 -18 -7 -23 -8 -4 -10 -3 -5 4 4 7 5 12 1 12 -3 0
-10 -12 -15 -26 -6 -15 -14 -22 -22 -18 -8 5 -9 2 -5 -9 4 -11 1 -17 -8 -17
-8 0 -15 -7 -15 -16 0 -8 -4 -12 -10 -9 -5 3 -10 1 -10 -5 0 -6 -4 -8 -10 -5
-5 3 -10 1 -10 -5 0 -6 -5 -8 -12 -4 -8 5 -7 0 2 -11 8 -10 10 -16 3 -12 -6 4
-19 4 -28 1 -13 -5 -14 -8 -3 -15 10 -7 9 -9 -4 -9 -9 0 -20 -5 -24 -12 -5 -7
-2 -9 7 -4 8 4 6 1 -3 -7 -10 -8 -14 -18 -10 -22 4 -5 -2 -5 -13 -1 -11 4 -16
4 -13 1 4 -4 -7 -25 -23 -48 -22 -31 -26 -43 -17 -49 10 -6 9 -8 -3 -8 -9 0
-20 -7 -23 -16 -4 -10 -2 -13 7 -9 6 4 4 0 -6 -8 -20 -16 -23 -31 -5 -22 7 4
5 0 -5 -8 -14 -11 -15 -16 -5 -20 10 -4 10 -8 -2 -16 -13 -10 -13 -11 0 -11
13 0 13 -2 1 -9 -11 -7 -12 -13 -3 -23 7 -9 8 -19 2 -28 -5 -8 -7 -24 -5 -35
3 -11 2 -14 -1 -7 -5 10 -9 10 -22 0 -13 -11 -15 -11 -7 2 4 8 -5 0 -22 -17
-16 -18 -33 -30 -37 -26 -4 4 -4 0 0 -10 5 -13 2 -16 -9 -11 -12 4 -15 1 -12
-15 2 -13 -3 -22 -16 -26 -10 -4 -19 -11 -19 -16 0 -6 -4 -7 -10 -4 -5 3 -10
-1 -10 -10 0 -9 -9 -19 -21 -22 -14 -4 -17 -8 -9 -13 9 -5 6 -10 -9 -15 -11
-3 -21 -13 -21 -21 0 -8 -6 -14 -12 -14 -7 0 -18 -11 -24 -24 -10 -21 -9 -24
5 -20 9 3 5 -1 -9 -8 -29 -14 -41 -29 -34 -40 3 -4 0 -8 -6 -8 -17 0 -60 -51
-53 -63 3 -6 1 -7 -5 -3 -6 3 -16 -3 -22 -14 -6 -11 -18 -20 -28 -20 -15 0
-15 -2 -2 -10 13 -9 7 -14 -12 -11 -4 0 -11 -11 -14 -25 -5 -19 -9 -22 -15
-12 -7 10 -9 9 -9 -4 0 -9 -7 -21 -16 -26 -8 -5 -16 -16 -18 -25 -1 -9 -6 -20
-11 -24 -4 -5 -4 -1 0 7 8 13 6 13 -8 1 -9 -7 -14 -18 -10 -24 4 -6 0 -8 -11
-4 -9 4 -14 3 -11 -2 3 -5 1 -12 -5 -16 -6 -4 -8 -11 -5 -16 4 -5 -1 -9 -9 -9
-8 0 -18 -9 -21 -20 -4 -11 -10 -18 -15 -15 -5 3 -7 -3 -5 -15 2 -11 -1 -23
-7 -26 -7 -4 -8 -2 -4 4 4 7 4 12 1 12 -8 0 -36 -27 -35 -35 1 -20 -1 -25 -12
-23 -7 2 -12 -4 -13 -12 -1 -8 -6 -14 -13 -13 -7 2 -9 -4 -5 -14 4 -11 3 -14
-5 -9 -11 6 -17 -5 -13 -26 0 -5 -6 -8 -14 -8 -8 0 -15 -7 -15 -15 0 -8 -6
-15 -12 -15 -9 0 -8 -4 2 -10 13 -8 13 -10 -2 -10 -13 0 -17 -8 -14 -34 1 -21
-2 -32 -9 -30 -14 6 -58 -53 -50 -66 3 -6 -1 -7 -10 -4 -11 4 -14 2 -9 -9 3
-8 0 -18 -6 -22 -8 -5 -7 -11 2 -23 10 -12 10 -14 1 -8 -11 6 -17 -9 -12 -26
0 -2 -4 -15 -10 -30 -7 -19 -7 -28 0 -28 6 0 6 -6 0 -17 -11 -22 -12 -35 -2
-48 7 -9 7 -27 1 -40 -5 -12 -3 -52 4 -63 4 -7 2 -12 -6 -12 -11 0 -11 -2 0
-9 8 -4 13 -14 12 -22 -4 -26 0 -40 9 -34 10 6 7 -27 -4 -45 -3 -6 2 -10 12
-10 15 0 16 -2 3 -10 -12 -8 -12 -10 4 -16 13 -5 14 -9 6 -14 -7 -4 -9 -13 -6
-19 4 -6 12 -9 17 -6 5 4 9 1 9 -4 0 -6 -5 -11 -11 -11 -8 0 -9 -4 0 -13 6 -8
8 -17 4 -20 -3 -4 -2 -7 4 -7 6 0 9 -9 5 -22 -4 -16 -2 -19 9 -13 11 7 11 5
-1 -10 -14 -17 -13 -18 4 -12 16 6 17 5 6 -8 -11 -13 -10 -18 6 -31 10 -9 13
-13 7 -9 -7 3 -13 2 -13 -3 0 -6 7 -13 16 -16 9 -3 14 -12 11 -20 -3 -7 1 -25
8 -40 10 -19 11 -25 2 -20 -7 4 -1 -6 13 -22 14 -15 17 -22 7 -15 -15 12 -17
12 -11 -3 3 -9 11 -16 18 -16 6 0 4 -5 -4 -10 -12 -8 -12 -10 -1 -10 8 0 11
-3 8 -7 -4 -3 0 -17 9 -31 10 -15 11 -21 3 -17 -8 5 -10 4 -5 -3 5 -9 144 -12
524 -12 286 0 511 4 504 9 -8 4 -13 11 -13 15 3 20 0 26 -11 20 -8 -5 -7 -1 2
10 12 16 12 20 0 30 -8 6 -15 20 -15 31 0 12 -6 19 -14 17 -12 -3 -12 -1 0 14
11 13 11 18 1 21 -6 3 -10 9 -6 14 3 5 0 9 -5 9 -6 0 -11 9 -11 19 0 11 -4 23
-10 26 -5 3 -10 15 -10 26 0 11 -4 17 -10 14 -5 -3 -10 -2 -10 4 0 5 6 12 13
14 10 4 10 6 0 6 -7 1 -13 8 -13 16 0 8 -4 15 -10 15 -5 0 -10 5 -10 11 0 5 6
7 13 3 7 -5 6 0 -3 11 -8 10 -14 26 -12 37 2 10 -2 18 -8 18 -6 0 -8 -5 -5
-10 3 -6 1 -10 -5 -10 -7 0 -9 8 -5 20 4 12 2 20 -5 20 -6 0 -8 5 -4 12 5 8 1
9 -12 5 -17 -6 -17 -6 -3 6 14 10 14 14 3 25 -8 7 -14 26 -14 42 0 17 -4 30
-9 30 -5 0 -8 8 -7 18 0 9 -5 16 -12 14 -8 -1 -11 2 -7 8 3 6 11 8 16 5 13 -9
11 9 -4 24 -9 11 -9 13 1 7 7 -5 12 -1 12 9 0 9 5 13 10 10 6 -3 10 0 10 7 0
15 48 40 62 32 5 -3 7 -2 6 3 -5 15 37 48 60 47 18 -1 20 1 10 13 -6 8 -7 13
-2 12 22 -4 44 2 44 12 0 5 -5 7 -12 3 -6 -4 -8 -3 -5 3 4 6 19 8 33 5 17 -3
25 -1 21 6 -4 5 0 13 9 16 10 4 13 2 8 -6 -5 -7 -3 -8 5 -4 7 5 10 15 7 23 -3
8 -2 12 3 8 5 -3 16 2 24 10 12 11 17 12 21 2 3 -7 7 -3 11 10 4 12 13 19 20
17 7 -3 20 5 29 18 9 12 16 19 16 15 0 -4 6 -2 14 5 8 7 12 16 10 19 -2 4 8
10 21 13 17 4 23 11 18 19 -4 7 2 5 12 -3 11 -9 16 -10 11 -2 -4 7 -2 12 4 12
7 0 9 7 6 16 -3 9 -2 12 5 9 6 -4 17 1 25 11 9 11 13 13 9 7 -4 -8 -1 -11 9
-7 9 3 14 9 13 12 -1 4 3 9 8 11 18 8 33 26 28 34 -2 4 2 7 11 7 8 0 16 5 18
12 2 6 20 12 40 12 21 1 34 -2 31 -8 -4 -5 1 -7 10 -3 9 3 18 -1 22 -10 4 -12
9 -13 17 -5 8 8 16 6 30 -10 12 -14 18 -17 18 -7 0 11 2 11 8 2 5 -7 20 -14
35 -15 15 -1 27 -5 27 -9 0 -9 54 -4 70 6 9 5 11 4 6 -3 -5 -8 2 -12 19 -12
15 0 24 -4 20 -10 -3 -6 1 -7 9 -4 9 3 13 11 9 18 -4 6 5 3 19 -6 19 -13 29
-15 34 -6 5 7 3 8 -6 3 -9 -5 -11 -4 -6 4 4 6 13 8 19 4 19 -11 50 -10 75 5
12 7 22 9 22 5 0 -4 7 2 16 13 8 10 12 12 8 4 -4 -8 4 -4 17 10 13 13 23 28
21 32 -1 5 1 7 5 7 21 -3 33 2 33 16 0 8 6 14 13 13 6 -2 11 3 9 10 -2 11 5
14 24 11 4 0 11 5 15 13 7 10 9 10 9 -2 0 -13 1 -13 10 0 7 11 10 11 10 2 0
-7 4 -11 9 -8 5 4 8 -2 6 -11 -1 -10 2 -23 7 -30 6 -7 5 -14 -3 -19 -8 -5 -9
-3 -4 6 5 9 4 11 -3 6 -9 -5 -7 -14 4 -32 9 -13 13 -24 9 -24 -4 0 -1 -8 6
-17 13 -16 12 -17 -3 -5 -11 9 -18 10 -23 2 -3 -5 -1 -10 6 -10 8 0 7 -5 -2
-17 -12 -15 -12 -16 1 -8 13 8 13 7 1 -8 -7 -9 -10 -17 -5 -17 5 0 2 -5 -6
-10 -13 -9 -13 -11 0 -20 9 -6 10 -10 3 -10 -7 0 -10 -10 -7 -25 2 -14 0 -25
-6 -25 -5 0 -10 -10 -10 -22 0 -19 2 -20 10 -8 6 9 10 10 10 3 0 -6 -4 -14
-10 -18 -5 -3 -6 -13 -3 -22 4 -11 3 -14 -5 -9 -8 5 -10 2 -6 -8 3 -9 11 -13
18 -9 6 4 5 -1 -3 -10 -8 -10 -11 -20 -8 -24 4 -3 -1 -12 -11 -20 -16 -14 -16
-14 2 -9 15 5 17 4 8 -7 -7 -8 -9 -17 -5 -21 4 -4 1 -11 -7 -16 -11 -7 -12
-10 -2 -10 8 0 10 -5 5 -13 -9 -14 -13 -32 -15 -69 0 -17 -5 -25 -12 -21 -6 4
-5 -1 3 -10 10 -13 11 -20 2 -31 -9 -10 -9 -16 -1 -21 8 -5 6 -11 -6 -19 -13
-10 -14 -15 -4 -21 9 -6 11 -4 5 5 -6 9 -4 11 4 6 9 -6 8 -13 -6 -29 -10 -11
-13 -17 -7 -14 15 9 27 -20 12 -29 -7 -5 -8 -2 -3 6 6 9 4 11 -4 6 -9 -6 -8
-12 4 -26 15 -17 15 -19 -2 -29 -10 -6 -14 -11 -10 -11 4 0 3 -10 -4 -21 -7
-13 -7 -19 -1 -15 6 4 10 -2 9 -14 -1 -11 -6 -20 -12 -20 -5 0 -4 -4 4 -9 9
-6 10 -10 2 -16 -9 -5 -9 -11 1 -23 7 -9 8 -13 2 -9 -7 4 -12 -2 -12 -16 -2
-31 -6 -50 -16 -66 -6 -10 -5 -12 2 -7 15 9 12 -36 -3 -46 -6 -5 -5 -8 3 -8 6
0 12 -5 12 -11 0 -5 -5 -7 -12 -3 -7 5 -8 3 -2 -7 12 -19 12 -33 -1 -41 -5 -4
856 -8 1914 -8 1808 0 1923 1 1910 17 -10 11 -10 14 -1 9 6 -4 12 -3 12 1 0 5
-6 15 -12 22 -8 8 -8 11 -2 8 7 -4 12 3 12 18 0 14 -6 25 -12 25 -6 0 -4 5 4
10 13 9 13 11 0 20 -8 5 -10 10 -5 10 6 0 11 9 12 20 1 13 -2 18 -10 14 -8 -5
-8 -3 1 7 6 7 12 17 12 22 0 4 -6 5 -12 1 -10 -6 -10 -4 0 7 6 7 12 20 12 28
0 14 -1 14 -10 1 -13 -21 -13 -3 1 22 9 18 9 20 -4 15 -12 -4 -14 -2 -10 10 5
11 3 14 -6 8 -10 -6 -11 -3 -2 13 13 25 14 35 3 28 -5 -3 -9 1 -9 9 0 8 4 12
9 9 4 -3 8 2 8 11 0 10 -5 14 -12 9 -10 -6 -10 -4 0 7 6 7 12 17 12 22 0 4 -6
5 -12 1 -10 -6 -10 -4 0 8 10 13 10 17 0 21 -10 4 -10 6 0 6 6 1 12 6 12 12 0
5 -4 7 -10 4 -6 -4 -6 4 0 21 8 21 8 29 -2 36 -7 4 -8 8 -3 8 6 0 11 9 12 20
1 13 -2 18 -9 14 -7 -5 -9 -1 -5 9 3 9 2 19 -3 22 -5 3 -7 12 -4 20 4 8 11 12
17 8 6 -4 7 -1 1 8 -5 8 -9 35 -10 61 -1 26 -7 55 -15 65 -13 17 -12 17 4 4
17 -13 18 -12 13 14 -3 16 0 36 7 44 10 12 9 13 -2 7 -10 -7 -12 -2 -6 25 4
25 3 30 -4 19 -7 -9 -11 -10 -11 -3 0 6 4 15 10 18 17 11 11 25 -7 18 -17 -6
-17 -6 0 11 15 15 15 21 5 34 -11 14 -10 15 6 9 16 -6 17 -5 6 8 -7 8 -17 12
-24 8 -6 -3 -6 0 2 8 16 17 16 49 0 49 -8 0 -9 3 -3 8 16 11 19 45 3 37 -7 -3
-4 1 6 9 17 14 18 16 3 16 -13 0 -15 5 -7 25 7 18 6 25 -3 25 -9 0 -9 2 -1 8
14 9 13 64 -1 74 -6 5 -5 8 3 8 8 0 11 9 8 23 -2 13 0 30 5 38 5 8 9 10 9 5 0
-5 8 -2 17 5 11 10 14 10 9 1 -4 -7 -1 -12 9 -12 9 0 14 4 11 8 -3 5 1 9 9 9
8 0 12 -4 10 -7 -6 -10 72 -6 81 3 4 4 13 2 20 -4 8 -7 14 -7 19 1 3 5 11 10
17 10 6 0 5 -7 -3 -17 -13 -14 -12 -15 6 -6 11 5 27 9 35 8 8 -1 21 4 29 9 11
8 13 8 7 -1 -5 -10 -1 -11 20 -3 15 6 33 9 41 6 7 -3 12 0 10 6 -1 7 9 12 23
12 14 1 31 8 38 16 10 13 11 12 6 -4 -6 -16 -4 -17 13 -8 21 12 41 11 62 -2 9
-6 12 -5 7 2 -3 6 -1 14 5 18 7 4 9 3 6 -3 -8 -12 27 -56 37 -46 3 3 6 -2 6
-12 0 -14 3 -15 14 -6 11 9 16 9 22 0 5 -8 3 -9 -6 -4 -9 6 -11 4 -6 -4 5 -7
15 -10 23 -7 8 3 12 2 10 -2 -3 -4 1 -13 9 -20 11 -10 14 -10 15 0 0 7 5 3 11
-9 6 -12 17 -24 25 -27 8 -3 11 -1 8 4 -3 6 -1 10 4 10 6 0 11 -8 11 -17 0
-15 2 -16 10 -3 8 13 10 12 10 -2 0 -10 7 -18 16 -18 9 0 12 -5 8 -12 -4 -6
-3 -8 4 -4 6 3 18 -1 26 -10 9 -8 16 -12 16 -7 1 16 23 -31 30 -64 5 -22 4
-33 -3 -33 -6 0 -2 -7 9 -15 13 -11 14 -13 3 -9 -13 4 -16 -1 -13 -25 2 -17
-1 -33 -7 -37 -8 -4 -7 -9 2 -15 10 -6 10 -9 2 -9 -7 0 -10 -7 -6 -17 4 -10 2
-14 -4 -10 -6 4 -13 0 -17 -8 -3 -8 0 -15 7 -15 8 0 9 -3 1 -8 -13 -9 -27 -45
-15 -38 5 4 7 -3 4 -14 -3 -11 -10 -17 -17 -13 -6 4 -5 0 2 -9 7 -9 9 -19 4
-22 -5 -3 -12 -15 -15 -26 -3 -11 -1 -18 3 -15 13 8 6 -21 -10 -41 -12 -14
-12 -18 -2 -22 10 -3 10 -7 1 -19 -7 -8 -12 -32 -11 -54 2 -22 -2 -39 -8 -39
-5 0 -10 -5 -10 -11 0 -5 6 -7 13 -4 6 4 5 1 -4 -7 -21 -17 -34 -58 -18 -58 9
0 8 -4 -1 -15 -7 -8 -9 -15 -4 -15 5 0 3 -4 -5 -9 -10 -7 -11 -13 -1 -31 8
-15 8 -20 1 -16 -6 4 -11 0 -11 -9 0 -9 4 -14 9 -11 4 3 6 -6 3 -19 -2 -14 -8
-23 -12 -20 -5 3 -7 -6 -5 -20 1 -14 -1 -25 -6 -25 -5 0 -6 -7 -3 -15 4 -8 2
-15 -2 -15 -5 0 -10 -11 -10 -25 -1 -14 3 -25 10 -25 6 0 4 -5 -4 -11 -11 -8
-12 -12 -3 -16 10 -3 9 -9 -3 -21 -15 -15 -15 -16 2 -23 17 -7 17 -8 2 -8 -14
-1 -17 -8 -14 -31 2 -17 -1 -33 -7 -37 -5 -3 -7 -1 -3 5 3 6 2 13 -3 16 -10 7
-9 -19 1 -30 4 -3 4 -13 1 -22 -5 -11 -3 -13 8 -7 11 7 12 6 2 -7 -7 -8 -10
-18 -6 -21 3 -4 213 -7 466 -7 430 0 459 1 446 17 -8 9 -9 14 -3 10 8 -5 11
11 8 54 -2 39 1 62 9 65 16 6 18 53 4 79 -9 18 -9 19 8 5 17 -14 17 -14 7 6
-6 12 -8 25 -4 29 10 10 9 29 -3 37 -6 5 -3 8 6 8 9 0 20 7 23 16 3 8 2 12 -4
9 -6 -3 -10 3 -10 15 0 12 4 19 8 16 5 -3 9 1 9 9 0 8 -4 12 -9 9 -4 -3 -5 2
-2 10 3 9 11 16 17 16 8 0 7 4 -1 12 -9 9 -7 15 6 25 10 9 11 12 2 7 -12 -6
-13 -5 -4 7 15 20 16 61 1 53 -7 -3 -4 1 5 9 14 11 15 16 5 27 -10 10 -9 11 2
5 11 -6 13 -4 8 8 -3 9 -1 19 4 23 6 3 9 17 6 30 -2 13 1 25 7 28 6 2 2 5 -9
6 -19 1 -18 2 3 10 24 10 30 30 10 30 -9 0 -8 4 2 10 13 8 13 13 2 31 -8 11
-9 18 -3 14 10 -5 15 7 12 27 0 5 5 8 11 8 9 0 8 4 -2 10 -9 6 -11 10 -3 10 7
0 10 7 6 17 -5 12 -3 14 8 8 9 -6 8 0 -5 19 -17 27 -17 29 -1 22 16 -6 16 -4
4 11 -8 9 -9 14 -3 10 7 -4 14 0 18 8 3 8 1 17 -5 21 -6 4 -5 12 3 22 11 13
11 14 -1 8 -9 -6 -8 0 4 17 11 17 13 27 5 32 -8 5 -8 11 1 21 6 8 8 14 5 14
-4 0 -2 9 4 20 9 17 8 20 -7 20 -11 0 -14 3 -7 8 15 10 25 42 13 42 -6 0 -5 8
2 21 8 16 8 20 -1 14 -9 -6 -9 -2 -1 14 10 18 9 21 -6 21 -11 0 -14 3 -7 8 16
11 25 42 12 42 -7 0 -6 5 2 15 7 9 8 15 2 15 -5 0 -13 7 -16 16 -3 8 -2 13 3
10 5 -3 12 1 15 10 8 22 8 26 -4 19 -6 -4 -10 5 -10 20 0 17 -4 24 -12 19 -8
-5 -9 -2 -5 9 3 10 2 17 -3 17 -6 0 -10 5 -10 11 0 5 5 7 11 4 6 -4 5 2 -2 13
-7 12 -16 19 -20 17 -3 -3 -5 6 -4 20 2 16 -1 22 -10 19 -10 -4 -12 1 -8 15 4
16 1 21 -13 21 -9 0 -15 3 -11 6 9 9 -16 33 -28 26 -5 -3 -4 1 3 10 11 14 10
17 -5 22 -10 3 -24 15 -31 27 -8 12 -9 18 -3 14 6 -3 11 -1 11 4 0 6 -6 11
-14 11 -7 0 -20 8 -27 17 -13 17 -13 17 6 3 20 -14 20 -14 1 7 -10 13 -23 20
-27 17 -5 -3 -6 2 -3 10 3 9 1 16 -5 16 -6 0 -18 14 -26 30 -9 18 -21 28 -27
24 -7 -4 -8 -3 -4 4 10 16 -11 52 -30 52 -8 0 -13 4 -10 8 3 5 -4 15 -15 22
-10 8 -19 20 -19 28 0 7 -4 11 -8 8 -5 -3 -15 7 -23 22 -8 15 -26 39 -41 53
-21 20 -24 29 -15 38 9 10 8 11 -8 5 -11 -4 -17 -4 -13 0 8 10 -14 36 -24 29
-5 -2 -8 3 -8 11 0 8 -10 22 -22 30 -12 9 -18 16 -13 16 5 0 -11 20 -37 45
-26 25 -53 45 -60 45 -8 0 -9 3 -3 8 6 4 9 16 9 27 -1 11 -2 26 -3 33 -1 7 -5
11 -10 7 -6 -3 -6 6 -1 25 6 19 5 32 -2 36 -7 5 -8 2 -3 -7 5 -8 4 -11 -1 -6
-4 4 -9 22 -9 38 0 17 -6 34 -14 38 -7 5 -12 11 -12 15 3 20 0 26 -11 20 -7
-5 -8 -3 -4 5 5 7 0 19 -10 27 -11 9 -14 13 -7 10 8 -5 8 0 0 18 -8 16 -14 21
-19 13 -5 -7 -8 -3 -8 10 0 27 -85 117 -100 108 -6 -4 -10 -3 -9 2 4 21 -2 33
-16 33 -8 0 -15 5 -15 11 0 5 -4 7 -10 4 -5 -3 -7 0 -4 8 5 14 -11 32 -30 32
-5 0 -10 8 -12 18 -3 23 -24 48 -34 42 -5 -3 -6 4 -3 15 4 16 2 19 -13 14 -16
-6 -17 -5 -6 7 10 11 8 17 -10 32 -13 10 -16 15 -8 11 12 -6 13 -5 3 8 -7 8
-9 19 -5 24 4 4 -1 2 -11 -6 -10 -7 -17 -9 -16 -4 4 23 -2 45 -11 39 -6 -3 -7
1 -4 9 3 9 1 16 -6 16 -6 0 -8 5 -4 12 4 6 3 8 -2 5 -6 -3 -16 -2 -24 4 -13 7
-13 9 0 9 9 0 2 9 -15 21 -19 13 -23 19 -10 15 19 -6 19 -5 3 7 -10 8 -15 17
-11 20 3 4 2 7 -4 7 -6 0 -13 9 -16 20 -4 14 -11 18 -24 14 -14 -4 -15 -4 -4
4 16 11 5 36 -11 26 -7 -4 -8 -2 -4 4 4 7 2 12 -4 12 -6 0 -8 5 -5 10 3 6 1
10 -5 10 -6 0 -8 5 -4 12 5 7 2 9 -9 5 -11 -4 -14 -2 -10 9 3 9 -1 14 -12 14
-9 0 -14 4 -11 8 3 5 -4 14 -14 22 -10 8 -16 18 -13 24 4 5 0 7 -10 3 -12 -4
-15 -1 -12 14 2 11 0 17 -4 14 -5 -2 -16 7 -25 20 -9 14 -21 23 -26 20 -6 -4
-10 1 -10 10 0 9 -10 26 -21 38 -12 12 -18 15 -14 7 4 -8 -1 -6 -12 5 -11 11
-19 23 -16 28 2 4 -3 7 -12 7 -9 0 -13 4 -10 10 6 9 -8 14 -28 11 -5 -1 -6 3
-2 9 3 5 1 10 -5 10 -5 0 -18 13 -29 30 -10 16 -21 27 -24 23 -4 -3 -7 2 -7
12 0 14 -3 15 -15 5 -13 -11 -14 -10 -9 5 5 13 4 16 -4 11 -7 -4 -12 -1 -12 9
0 9 -4 14 -8 11 -5 -3 -14 4 -22 14 -8 10 -17 17 -22 14 -4 -3 -8 0 -8 7 0 8
-4 8 -15 -1 -13 -11 -14 -10 -8 6 6 17 5 18 -12 4 -11 -9 -16 -10 -11 -3 7 12
-5 18 -28 14 -5 -1 -18 7 -30 17 -11 11 -31 19 -43 17 -12 -1 -20 2 -18 6 8
11 -22 18 -33 7 -6 -6 -12 -6 -16 1 -4 6 -12 11 -18 11 -6 0 -5 -7 3 -17 9
-12 5 -11 -11 3 -14 12 -31 19 -37 17 -7 -3 -13 0 -13 7 0 8 -6 7 -22 -1 -13
-6 -20 -8 -15 -3 4 4 -5 13 -20 19 -23 10 -30 9 -41 -4 -8 -9 -11 -11 -8 -5 7
13 -18 26 -29 16 -11 -11 -28 -9 -62 10 -30 16 -32 16 -27 0 2 -9 -1 -7 -7 5
-11 21 -13 22 -26 5 -8 -9 -11 -11 -8 -4 5 10 0 13 -16 12 -39 -3 -51 -1 -44
10 3 5 0 7 -8 4 -8 -3 -17 2 -20 10 -4 9 -14 16 -22 16 -10 0 -13 5 -9 12 5 7
2 9 -9 5 -10 -4 -14 -2 -11 6 4 13 -39 37 -68 37 -10 0 -18 5 -18 10 0 6 -5
10 -11 10 -5 0 -8 -4 -5 -8 3 -5 -1 -9 -9 -9 -8 0 -13 2 -11 5 3 2 -1 10 -7
17 -8 9 -16 10 -24 3 -9 -7 -13 -7 -13 1 0 7 -4 10 -9 6 -5 -3 -13 0 -17 6 -4
8 -9 7 -15 -2 -7 -11 -9 -10 -9 4 0 9 -5 17 -11 17 -5 0 -7 -6 -3 -12 6 -10 4
-10 -8 0 -9 7 -22 11 -29 10 -8 -2 -13 3 -11 11 3 12 0 12 -12 1 -9 -7 -16 -8
-16 -3 0 5 -8 9 -17 9 -28 2 -71 12 -85 20 -9 6 -9 3 1 -9 22 -27 4 -20 -25
11 -15 15 -24 22 -20 15 3 -6 1 -15 -5 -19 -7 -4 -9 -3 -5 4 3 6 0 14 -7 19
-8 4 -16 20 -19 35 -3 15 -2 25 2 23 5 -3 10 2 14 10 3 8 11 15 18 15 9 0 8
-3 -2 -10 -8 -5 -11 -10 -7 -10 5 0 23 10 40 22 17 12 27 16 22 7 -8 -12 -7
-12 9 0 16 13 29 17 74 23 7 1 10 8 8 15 -4 10 -1 11 11 5 11 -7 21 -6 30 3 7
7 22 11 34 8 17 -5 29 2 47 23 13 16 21 23 18 17 -4 -7 -2 -13 4 -13 6 0 13 7
17 16 3 8 11 13 18 11 6 -3 17 4 24 15 7 11 18 17 27 14 9 -3 12 -1 9 4 -3 6
-2 10 3 10 5 0 14 10 21 23 8 15 10 16 6 3 -5 -16 -3 -17 10 -6 8 7 12 16 9
21 -3 5 2 9 10 9 9 0 16 4 16 10 0 5 7 7 15 4 10 -4 15 0 15 11 0 9 5 13 10
10 6 -3 10 1 10 9 0 9 5 16 11 16 5 0 7 5 3 12 -5 8 -2 9 9 5 10 -4 17 -1 17
6 0 7 9 18 20 25 12 7 18 17 15 23 -4 5 -1 8 7 7 7 -2 12 3 10 10 -1 8 2 11 8
7 5 -3 13 1 16 9 3 9 12 16 19 16 8 0 17 9 20 20 3 11 10 20 15 20 5 0 12 9
15 20 3 11 13 20 21 20 8 0 14 5 14 10 0 6 13 24 29 39 16 16 27 32 24 35 -4
3 -1 6 6 6 8 0 11 6 7 17 -4 10 -4 14 0 10 17 -16 70 73 58 96 -5 9 -3 9 6 0
10 -10 17 -5 32 22 10 19 18 44 18 56 0 11 5 17 10 14 8 -5 15 22 11 47 0 4 6
5 14 2 10 -4 13 0 10 15 -2 11 0 23 6 26 5 4 14 15 20 27 8 15 8 19 0 14 -16
-10 -13 0 5 18 8 9 11 16 5 16 -6 0 -11 5 -11 11 0 5 5 7 10 4 6 -3 10 1 10 9
0 9 4 16 9 16 5 0 7 9 4 20 -3 11 0 27 7 35 7 9 10 18 6 22 -3 3 1 17 10 31 9
13 11 21 5 18 -6 -4 -11 -2 -11 3 0 6 4 11 9 11 5 0 11 7 14 14 4 11 1 13 -11
9 -14 -6 -15 -4 -5 9 7 8 10 18 6 21 -3 4 2 7 12 7 18 0 18 1 -1 15 -11 8 -14
15 -6 15 6 0 12 5 12 11 0 5 -4 8 -8 5 -5 -3 -7 5 -6 17 1 12 3 26 3 30 1 5 5
6 10 2 5 -3 12 -1 15 4 4 5 1 13 -5 17 -8 5 -9 3 -4 -6 5 -9 4 -11 -4 -6 -9 6
-9 11 -1 21 8 10 7 14 -2 18 -10 4 -10 6 0 6 6 1 12 6 12 12 0 5 -5 7 -11 3
-8 -4 -8 -1 -2 12 11 23 11 74 -1 93 -7 10 -6 12 4 6 8 -5 11 -3 8 6 -3 8 1
20 8 27 10 9 11 20 4 38 -7 19 -7 23 2 18 8 -5 9 -2 4 11 -5 15 -4 16 8 6 11
-9 15 -9 19 1 4 10 6 9 6 -1 1 -11 5 -10 17 5 8 10 13 13 9 7 -7 -14 4 -17 29
-7 9 3 13 10 10 15 -3 5 3 9 13 9 15 0 16 2 3 10 -10 6 -11 10 -2 10 6 0 12 5
12 11 0 5 -6 7 -12 3 -8 -5 -7 0 2 11 8 10 10 16 5 13 -6 -4 -17 -3 -25 3 -13
7 -13 9 1 9 11 0 15 8 14 25 -2 14 2 25 8 25 7 0 5 5 -3 10 -8 5 -11 10 -6 10
5 0 3 7 -4 15 -11 13 -10 14 3 9 11 -4 14 0 12 13 -2 10 -4 19 -5 21 -7 8 -5
29 4 41 13 17 14 15 -3 34 -9 12 -10 17 -2 17 7 0 9 5 6 10 -4 6 -12 8 -18 4
-7 -3 -3 2 7 10 11 9 15 16 10 16 -6 0 -11 7 -11 15 0 8 5 15 11 15 6 0 4 5
-4 10 -8 5 -11 10 -6 10 5 0 3 7 -4 15 -11 13 -10 14 6 8 16 -6 17 -4 7 8 -10
12 -10 18 0 29 10 10 9 11 -2 5 -11 -6 -13 -4 -8 8 4 12 1 17 -11 17 -15 0
-15 2 -2 10 10 6 11 10 3 10 -7 0 -13 8 -13 17 0 9 -6 24 -14 32 -21 23 -23
45 -6 46 8 0 14 6 13 13 -2 7 2 12 8 12 6 0 8 7 5 16 -3 8 -2 13 3 10 11 -7
22 19 13 28 -3 4 -5 32 -4 63 1 31 -3 62 -9 70 -9 10 -8 13 1 13 10 0 10 3 0
15 -10 12 -10 15 1 15 9 0 10 3 4 8 -15 11 -17 32 -2 32 9 0 9 2 -1 9 -17 11
-17 21 0 32 9 6 9 9 1 9 -7 0 -10 10 -7 25 3 17 -1 27 -11 31 -8 3 -12 10 -9
15 3 5 1 9 -5 9 -6 0 -8 7 -4 15 3 9 2 15 -3 14 -21 -4 -30 2 -30 21 0 11 5
20 11 20 5 0 4 4 -4 9 -13 8 -13 12 0 27 12 16 12 17 -1 9 -12 -7 -13 -6 -3 7
8 9 11 33 9 58 -3 29 -1 39 5 29 5 -8 9 -12 10 -9 0 3 2 22 5 44 2 21 9 44 15
52 7 9 7 19 -2 36 -10 20 -10 21 2 11 12 -9 14 -5 13 28 -1 21 2 42 8 45 5 3
4 12 -4 22 -10 12 -10 14 0 8 7 -4 12 -1 12 8 0 9 -6 16 -12 16 -7 0 -5 5 5
11 9 6 15 15 12 20 -4 5 -12 6 -18 3 -7 -4 -2 3 11 15 23 22 30 37 12 26 -11
-7 -9 23 3 43 6 8 2 12 -10 12 -14 0 -15 2 -4 9 8 5 10 14 6 21 -6 9 -4 11 5
5 8 -5 11 -3 8 6 -3 8 -1 24 3 37 6 15 5 21 -1 17 -6 -3 -10 -1 -10 4 0 6 5
11 11 11 7 0 4 11 -6 26 -9 15 -12 23 -5 19 9 -6 11 2 8 29 -2 20 0 36 5 36 4
0 5 5 1 12 -10 16 -11 68 -1 68 5 0 5 5 1 12 -10 16 -11 68 -1 68 5 0 5 5 1
12 -10 17 -11 68 0 68 5 0 2 7 -5 17 -11 13 -11 17 -1 21 10 3 10 7 1 18 -9
11 -9 14 1 14 9 0 7 7 -6 21 -14 16 -15 22 -5 28 10 6 9 10 -3 14 -12 5 -14
12 -6 31 5 14 5 28 1 31 -5 3 -7 14 -4 25 3 12 0 20 -7 20 -7 0 -10 8 -7 20 3
10 2 19 -2 18 -19 -2 -24 3 -11 12 13 9 13 11 0 20 -12 8 -12 10 5 10 15 0 17
2 6 9 -7 5 -11 13 -7 19 3 6 2 13 -4 17 -6 4 -8 10 -5 15 3 5 1 11 -5 15 -5 3
-10 1 -10 -6 0 -7 -3 -9 -6 -6 -4 4 -1 13 6 22 8 10 9 15 1 15 -6 0 -9 13 -7
30 3 25 1 28 -11 18 -11 -9 -13 -8 -11 3 2 8 8 17 13 21 6 5 5 8 -3 8 -7 0
-11 4 -7 9 3 5 -2 16 -10 24 -8 9 -15 27 -15 41 0 14 -5 28 -11 31 -6 4 -8 13
-5 21 3 9 -1 14 -12 15 -10 0 -12 3 -4 6 8 3 5 11 -10 25 -13 11 -17 17 -10
13 6 -3 12 -1 12 4 0 6 -5 11 -10 11 -6 0 -9 6 -8 13 2 6 -3 11 -10 9 -9 -2
-11 4 -7 18 4 14 1 22 -10 26 -12 5 -13 9 -5 14 9 5 6 10 -9 15 -12 3 -18 11
-15 17 5 8 1 9 -11 4 -15 -5 -16 -4 -5 9 9 11 9 15 1 15 -7 0 -10 4 -7 9 3 5
-1 11 -9 15 -8 3 -15 13 -15 21 0 9 -4 14 -9 10 -6 -3 -8 4 -6 15 2 11 0 18
-4 15 -5 -2 -14 2 -21 10 -11 13 -10 14 5 8 15 -5 15 -3 -3 15 -12 12 -27 22
-33 22 -5 0 -7 5 -4 10 3 6 1 10 -5 10 -6 0 -8 5 -5 10 3 6 0 10 -8 10 -8 0
-20 7 -27 15 -7 8 -16 13 -20 10 -5 -3 -6 3 -3 13 3 14 -4 22 -27 32 -23 9
-28 15 -18 21 10 7 10 9 -2 9 -9 0 -22 9 -30 20 -8 11 -23 20 -34 20 -11 0
-17 3 -13 6 9 10 -25 43 -39 37 -8 -3 -14 0 -14 7 0 6 -4 8 -10 5 -5 -3 -10 0
-10 7 0 9 -3 9 -10 -2 -7 -11 -10 -12 -10 -2 0 20 -26 42 -50 42 -12 0 -19 4
-16 9 3 5 -1 12 -10 15 -10 4 -13 2 -9 -7 4 -6 1 -5 -7 3 -14 17 -27 19 -46 6
-7 -4 -16 -5 -19 -2 -4 3 -1 6 5 6 7 0 12 5 12 11 0 5 -4 8 -9 4 -5 -3 -13 -1
-16 5 -5 8 -12 7 -23 -2 -13 -11 -15 -11 -10 4 9 21 -2 31 -19 17 -9 -9 -13
-8 -13 0 0 6 -7 11 -16 11 -8 0 -12 5 -9 10 3 6 2 10 -4 10 -5 0 -12 -6 -14
-12 -3 -8 -6 -6 -6 5 -1 15 -12 22 -34 18 -4 -1 -3 8 3 19 7 13 7 20 0 20 -5
0 -10 12 -10 26 0 14 -4 23 -10 19 -5 -3 -10 0 -10 8 0 7 -21 37 -46 65 -40
44 -49 50 -62 40 -13 -11 -14 -11 -7 1 6 11 4 13 -8 8 -10 -4 -17 -2 -17 4 0
6 -6 9 -14 6 -8 -3 -17 -1 -20 6 -3 8 -5 8 -5 -2 -1 -11 -4 -11 -16 -1 -12 10
-15 10 -15 -1 0 -12 -2 -12 -9 0 -5 8 -14 10 -22 5 -18 -11 -49 -13 -43 -2 3
4 -5 8 -18 8 -18 0 -20 2 -8 10 13 9 13 10 0 11 -8 1 -18 1 -22 0 -5 0 -7 2
-7 7 3 20 -3 32 -17 32 -8 0 -13 4 -10 9 3 5 -1 12 -10 15 -8 3 -12 2 -9 -3 3
-5 1 -13 -5 -16 -6 -4 -10 -3 -9 2 4 21 -2 33 -17 33 -9 0 -24 8 -33 18 -16
17 -31 23 -65 27 -11 1 -22 7 -24 13 -2 7 -8 10 -13 6 -5 -3 -9 0 -9 7 0 8 -4
8 -15 -1 -12 -10 -15 -9 -15 6 0 16 -2 17 -10 4 -8 -13 -11 -13 -19 -1 -7 11
-11 10 -20 -5 -6 -11 -11 -14 -11 -6 0 9 -7 11 -21 7 -17 -6 -20 -4 -13 6 5 9
-3 7 -20 -5 -21 -13 -30 -15 -36 -6 -6 9 -9 9 -15 1 -5 -9 -11 -9 -23 1 -12
10 -14 10 -8 1 4 -8 1 -13 -9 -13 -9 0 -14 4 -11 8 2 4 -8 7 -22 6 -15 -1 -27
-3 -27 -4 0 -1 -10 -3 -22 -4 -13 -2 -23 1 -23 6 0 5 -4 7 -9 3 -5 -3 -13 0
-17 6 -5 8 -8 8 -14 -1 -5 -8 -11 -7 -23 4 -11 12 -17 13 -20 3 -4 -9 -7 -9
-18 1 -17 15 -53 16 -43 0 4 -7 3 -8 -5 -4 -6 4 -9 11 -6 16 3 4 -4 10 -15 13
-11 3 -23 1 -26 -4 -3 -5 -13 -5 -24 1 -13 7 -21 7 -26 -1 -4 -8 -9 -7 -14 2
-7 10 -12 10 -23 0 -11 -8 -17 -9 -22 -1 -3 6 -12 7 -18 3 -19 -12 -37 -12
-37 -2 0 6 -6 7 -12 2 -7 -4 -22 -8 -33 -8 -11 0 -26 -4 -32 -8 -9 -6 -11 -3
-7 7 8 22 -8 20 -24 -1z m1293 -253 c10 -11 16 -20 13 -20 -3 0 -13 9 -23 20
-10 11 -16 20 -13 20 3 0 13 -9 23 -20z m-3345 -3054 c0 -2 -8 -10 -17 -17
-16 -13 -17 -12 -4 4 13 16 21 21 21 13z m4387 -311 c0 -8 -4 -12 -9 -9 -5 3
-6 10 -3 15 9 13 12 11 12 -6z m-163 -2243 c3 -5 -1 -9 -9 -9 -8 0 -12 4 -9 9
3 4 7 8 9 8 2 0 6 -4 9 -8z m1197 -1489 c13 -16 12 -17 -3 -4 -10 7 -18 15
-18 17 0 8 8 3 21 -13z"/>
<path d="M1785 1969 c-4 -6 -5 -12 -2 -15 2 -3 7 2 10 11 7 17 1 20 -8 4z"/>
</g>
</svg>
